<?xml version="1.0" standalone="no"?>
<!DOCTYPE svg PUBLIC "-//W3C//DTD SVG 20010904//EN"
 "http://www.w3.org/TR/2001/REC-SVG-20010904/DTD/svg10.dtd">
<svg version="1.0" xmlns="http://www.w3.org/2000/svg"
 width="298.000000pt" height="298.000000pt" viewBox="0 0 298.000000 298.000000"
 preserveAspectRatio="xMidYMid meet">
<metadata>
Created by potrace 1.11, written by Peter Selinger 2001-2013
</metadata>
<g transform="translate(0.000000,298.000000) scale(0.100000,-0.100000)"
fill="#000000" stroke="none">
<path d="M1270 2969 c-44 -7 -143 -27 -170 -34 -3 -1 -18 -5 -35 -10 -46 -12
-159 -73 -196 -106 -18 -16 -36 -29 -40 -29 -4 0 -14 -6 -21 -13 -26 -25 -94
-64 -238 -139 -92 -48 -170 -109 -170 -134 0 -7 -4 -14 -8 -16 -5 -1 -28 -41
-51 -88 -51 -101 -79 -140 -142 -200 -66 -61 -75 -87 -95 -245 -7 -66 -22
-166 -27 -185 -14 -56 -21 -77 -30 -88 -10 -13 -1 -109 12 -127 8 -9 16 -42
27 -105 2 -14 6 -68 8 -120 6 -156 37 -263 80 -279 13 -5 35 -1 61 10 54 25
57 24 96 -16 39 -40 49 -42 74 -15 27 29 42 25 89 -25 42 -44 72 -55 92 -35
35 35 84 5 84 -51 0 -14 10 -39 21 -53 20 -25 27 -27 79 -24 70 4 84 -8 82
-67 -2 -28 4 -49 14 -59 14 -14 18 -14 46 0 27 14 31 14 49 -2 27 -25 31 -47
14 -87 -22 -53 -13 -66 38 -56 45 8 101 -10 111 -36 3 -8 -8 -38 -24 -67 -38
-68 -37 -89 4 -144 33 -43 54 -112 42 -133 -4 -5 -1 -13 4 -16 6 -4 15 -17 20
-29 14 -39 71 -58 178 -59 54 -1 115 2 137 5 41 8 49 9 145 29 69 14 118 21
149 20 40 -2 102 18 187 59 44 22 131 55 192 75 62 20 118 43 126 51 8 8 19
14 25 14 6 0 11 5 11 10 0 6 5 10 11 10 6 0 25 11 44 25 18 14 77 49 130 78
102 55 118 73 146 165 7 23 27 60 45 81 19 21 66 101 105 177 40 77 81 152 92
167 60 86 70 243 30 452 -7 36 -8 183 -1 279 7 91 -10 138 -110 318 -30 54
-62 124 -72 155 -21 67 -48 129 -70 157 -17 23 -118 124 -176 177 -21 20 -86
86 -144 148 -168 179 -241 217 -420 221 -52 1 -122 3 -155 5 -140 9 -454 12
-505 4z"/>
<path d="M223 976 c-24 -14 -23 -23 5 -69 23 -35 37 -43 92 -49 21 -3 25 1 23
22 -3 43 -11 89 -18 100 -8 13 -77 10 -102 -4z"/>
<path d="M599 888 c0 -2 -2 -13 -5 -26 -2 -13 -15 -44 -29 -70 -32 -60 -31
-66 5 -47 22 11 30 23 30 43 1 15 3 44 6 65 3 20 3 37 0 37 -3 0 -6 -1 -7 -2z"/>
<path d="M363 853 c-18 -6 -16 -24 5 -39 22 -17 39 -17 45 -1 6 15 -33 46 -50
40z"/>
<path d="M227 828 c-3 -11 -3 -45 3 -131 0 -4 16 3 37 17 27 19 41 23 54 15
14 -7 17 -5 16 11 -1 11 -9 23 -20 26 -10 3 -20 18 -23 34 -4 18 -14 30 -28
34 -30 8 -33 8 -39 -6z"/>
<path d="M863 515 c-17 -7 -34 -24 -38 -36 -4 -13 -14 -29 -21 -37 -29 -29 -4
-61 55 -70 13 -2 37 -10 53 -18 48 -25 61 -13 55 49 -7 62 -15 87 -29 87 -5 0
-17 9 -26 20 -15 17 -20 18 -49 5z"/>
<path d="M920 313 c-20 -14 -21 -17 -6 -25 13 -7 14 -13 5 -29 -6 -11 -8 -27
-5 -34 7 -20 84 -41 97 -28 12 12 20 106 10 119 -11 16 -77 13 -101 -3z"/>
<path d="M1134 87 c-3 -8 -21 -23 -40 -33 -34 -18 -46 -43 -21 -45 136 -11
148 -6 119 52 -18 36 -48 50 -58 26z"/>
</g>
</svg>
